<?xml version="1.0" encoding="utf-8"?>
<!-- Generator: Adobe Illustrator 17.0.0, SVG Export Plug-In . SVG Version: 6.00 Build 0)  -->
<!DOCTYPE svg PUBLIC "-//W3C//DTD SVG 1.1//EN" "http://www.w3.org/Graphics/SVG/1.1/DTD/svg11.dtd">
<svg version="1.1" id="Layer_1" xmlns="http://www.w3.org/2000/svg" xmlns:xlink="http://www.w3.org/1999/xlink" x="0px" y="0px"
	 width="73.382px" height="125.014px" viewBox="0 0 73.382 125.014" enable-background="new 0 0 73.382 125.014"
	 xml:space="preserve">
<g>
	<g>
		<g>
			<line fill="#232322" x1="4.017" y1="120.997" x2="36.692" y2="4.017"/>
			<path fill="#232322" d="M4.019,125.014c-0.358,0-0.721-0.048-1.083-0.149c-2.136-0.597-3.384-2.812-2.788-4.948L32.823,2.937
				c0.598-2.136,2.814-3.384,4.949-2.787c2.136,0.597,3.385,2.812,2.788,4.948L7.886,122.077
				C7.389,123.852,5.776,125.014,4.019,125.014z"/>
		</g>
	</g>
	<g>
		<g>
			<line fill="#232322" x1="69.365" y1="120.997" x2="36.69" y2="4.017"/>
			<path fill="#232322" d="M69.362,125.014c-1.756,0-3.37-1.161-3.866-2.937L32.823,5.097c-0.597-2.136,0.651-4.351,2.787-4.948
				c2.135-0.597,4.352,0.651,4.949,2.787l32.674,116.98c0.597,2.136-0.652,4.352-2.788,4.948
				C70.084,124.966,69.72,125.014,69.362,125.014z"/>
		</g>
	</g>
	<g>
		<g>
			<line fill="#232322" x1="19.833" y1="67.038" x2="54.17" y2="67.038"/>
			<path fill="#232322" d="M54.17,71.054H19.833c-2.218,0-4.016-1.798-4.016-4.016c0-2.218,1.798-4.016,4.016-4.016H54.17
				c2.218,0,4.016,1.798,4.016,4.016C58.186,69.256,56.388,71.054,54.17,71.054z"/>
		</g>
	</g>
</g>
</svg>
