<?xml version="1.0" encoding="utf-8"?>
<!-- Generator: Adobe Illustrator 17.0.0, SVG Export Plug-In . SVG Version: 6.00 Build 0)  -->
<!DOCTYPE svg PUBLIC "-//W3C//DTD SVG 1.1//EN" "http://www.w3.org/Graphics/SVG/1.1/DTD/svg11.dtd">
<svg version="1.1" id="Layer_1" xmlns="http://www.w3.org/2000/svg" xmlns:xlink="http://www.w3.org/1999/xlink" x="0px" y="0px"
	 width="909.443px" height="759.5px" viewBox="0 0 909.443 759.5" enable-background="new 0 0 909.443 759.5" xml:space="preserve">
<rect x="4.073" y="170" width="900.708" height="9"/>
<path fill="#FFFFFF" d="M842.406,592h-198V246.009c0,0-3.336-27.266,27.4-47.14c14.25-9.214,35.064-18.22,67.778-19.694
	c103.273-4.651,102.821,70.245,102.821,70.245V592z"/>
<linearGradient id="SVGID_1_" gradientUnits="userSpaceOnUse" x1="765.8579" y1="462.0555" x2="830.0562" y2="462.0555">
	<stop  offset="0" style="stop-color:#AEABAC"/>
	<stop  offset="0.275" style="stop-color:#B6B3B3"/>
	<stop  offset="0.7088" style="stop-color:#CDC9C8"/>
	<stop  offset="1" style="stop-color:#E0DBD9"/>
</linearGradient>
<path fill="url(#SVGID_1_)" d="M820.819,489.915l0.011-56.415h9.227l-0.014,56.415H820.819z M817.743,490l0.011-56.5h-9.224
	l-0.014,56.5H817.743z M787.961,490.611l8.133-45.252l-9.073-1.657l-8.135,45.25L787.961,490.611z M774.935,490.611l8.133-45.252
	l-9.073-1.657l-8.137,45.25L774.935,490.611z M800.568,490.115l8.133-45.248l-9.075-1.661l-8.134,45.254L800.568,490.115z"/>
<path fill="#FFFFFF" d="M263.614,589H68.781V232.053c0,0-9.647-49.73,93.625-54.383c103.275-4.652,101.208,69.889,101.208,69.889
	V589z"/>
<path fill="#FFFFFF" d="M585.406,179c0,0,0,184.548,0,205.481c0,17.03,59,16.413,59,0.778c0-19.578,0-19.534,0-206.259H585.406z"/>
<linearGradient id="SVGID_2_" gradientUnits="userSpaceOnUse" x1="647.0288" y1="549.7531" x2="842.6695" y2="549.7531">
	<stop  offset="0" style="stop-color:#AEABAC"/>
	<stop  offset="0.275" style="stop-color:#B6B3B3"/>
	<stop  offset="0.7088" style="stop-color:#CDC9C8"/>
	<stop  offset="1" style="stop-color:#E0DBD9"/>
</linearGradient>
<path fill="url(#SVGID_2_)" d="M664.08,545.491c0,4.708-3.814,8.525-8.521,8.525c-4.713,0-8.529-3.816-8.529-8.525 M664.887,545.491
	c0,4.708,3.817,8.525,8.53,8.525c4.706,0,8.521-3.816,8.521-8.525 M682.747,545.491c0,4.708,3.816,8.525,8.527,8.525
	c4.706,0,8.523-3.816,8.523-8.525 M700.605,545.491c0,4.708,3.817,8.525,8.527,8.525c4.707,0,8.523-3.816,8.523-8.525
	 M718.464,545.491c0,4.708,3.816,8.525,8.527,8.525c4.706,0,8.523-3.816,8.523-8.525 M736.323,545.491
	c0,4.708,3.817,8.525,8.527,8.525c4.707,0,8.523-3.816,8.523-8.525 M754.179,545.491c0,4.708,3.819,8.525,8.53,8.525
	c4.706,0,8.523-3.816,8.523-8.525 M772.041,545.491c0,4.708,3.817,8.525,8.527,8.525c4.707,0,8.523-3.816,8.523-8.525
	 M789.9,545.491c0,4.708,3.815,8.525,8.527,8.525c4.706,0,8.521-3.816,8.521-8.525 M807.758,545.491
	c0,4.708,3.815,8.525,8.527,8.525c4.707,0,8.521-3.816,8.521-8.525 M825.615,545.491c0,4.708,3.817,8.525,8.53,8.525
	c4.704,0,8.524-3.816,8.524-8.525"/>
<rect x="70.406" y="71.5" fill="#F4EAEC" width="770" height="101"/>
<path d="M621.572,356.415c0,3.596-2.901,6.513-6.5,6.513l0,0c-3.598,0-6.5-2.917-6.5-6.513V207.552c0-3.597,2.902-6.512,6.5-6.512
	l0,0c3.599,0,6.5,2.915,6.5,6.512V356.415z"/>
<path fill="none" stroke="#000000" stroke-width="1.8608" stroke-linecap="round" stroke-linejoin="round" stroke-miterlimit="1" d="
	M276.497,625.297"/>
<path fill="none" stroke="#000000" stroke-width="1.8608" stroke-linejoin="round" stroke-miterlimit="1" d="M315.573,627.159"/>
<path fill="#FFFFFB" d="M584.92,601.264c0,0,0.155-334.719,0.155-352.153c0-17.435-4.587-25.515-8.384-31.003
	c-15.632-22.6-64.955-39.456-122.603-39.456c-59.188,0-109.117,18.39-123.83,43.118c-3.208,5.394-5.414,17.11-5.414,27.991
	c0,10.881,0.38,350.651,0.38,350.651l36.401-22.563l1.395,147.002l-44.115,33.65l268.834,0.25l-40.268-34.133l0.116-147.234
	L584.92,601.264z"/>
<path fill="none" stroke="#000000" stroke-width="1.8608" stroke-linejoin="round" stroke-miterlimit="1" d="M808.37,284.155
	c0,22.609-18.33,40.938-40.938,40.938c-22.609,0-40.937-18.329-40.937-40.938c0-14.974,8.038-28.067,20.036-35.206
	c6.117-3.639,13.264-5.732,20.9-5.732C790.04,243.217,808.37,261.546,808.37,284.155z"/>
<path fill="none" stroke="#000000" stroke-width="1.8608" stroke-linejoin="round" stroke-miterlimit="1" d="M183.145,284.155
	c0,22.609-18.327,40.938-40.937,40.938c-22.609,0-40.936-18.329-40.936-40.938c0-14.974,8.04-28.067,20.037-35.206
	c6.118-3.639,13.264-5.732,20.899-5.732C164.818,243.217,183.145,261.546,183.145,284.155z"/>
<path fill="#D8D5D8" d="M142.294,315.935c-2.056,0-3.721-1.667-3.721-3.721c0-2.055,1.665-3.723,3.721-3.723
	c14.261,0,25.862-11.6,25.862-25.861c0-2.055,1.666-3.721,3.722-3.721c2.055,0,3.721,1.666,3.721,3.721
	C175.599,300.994,160.659,315.935,142.294,315.935z"/>
<path fill="#D8D5D8" d="M767.516,315.935c-2.054,0-3.72-1.667-3.72-3.721c0-2.055,1.666-3.723,3.72-3.723
	c14.261,0,25.863-11.6,25.863-25.861c0-2.055,1.665-3.721,3.722-3.721c2.054,0,3.721,1.666,3.721,3.721
	C800.822,300.994,785.881,315.935,767.516,315.935z"/>
<path fill="none" d="M64.759,568.471"/>
<polygon points="905.155,21 4.906,21 3.989,17 905.74,17 "/>
<rect x="62.656" y="600" width="202.25" height="9"/>
<rect x="644.656" y="600" width="202.083" height="9"/>
<rect x="61.906" y="723" width="204.5" height="9"/>
<rect x="642.906" y="723" width="202.5" height="9"/>
<line fill="none" stroke="#000000" stroke-width="4" stroke-linejoin="round" stroke-miterlimit="1" x1="767.406" y1="181" x2="767.406" y2="244"/>
<rect x="742.406" y="250.858" width="49" height="1.283"/>
<line fill="none" stroke="#000000" stroke-width="4" stroke-linejoin="round" stroke-miterlimit="1" x1="143.406" y1="181" x2="143.406" y2="244"/>
<rect x="115.406" y="253.858" width="51" height="1.283"/>
<g>
	<rect x="89.153" y="625.073" fill="#A8A2A7" width="150.502" height="83.516"/>
</g>
<g>
	<rect x="668.403" y="625.573" fill="#A8A2A7" width="150.503" height="83.516"/>
</g>
<g>
	<path d="M816.914,627.159v80.014H669.912v-80.014H816.914 M820.635,623.437H666.19v87.457h154.445V623.437L820.635,623.437z"/>
</g>
<polyline fill="none" stroke="#000000" stroke-width="2" stroke-linecap="round" stroke-linejoin="round" stroke-miterlimit="1" points="
	325.156,600.5 362.5,577.099 362.406,724.695 320.781,757.254 "/>
<path fill="none" stroke="#000000" stroke-width="3.7216" stroke-linejoin="round" stroke-miterlimit="1" d="M333.871,213.445"/>
<line fill="none" stroke="#000000" stroke-width="1.8608" stroke-linejoin="round" stroke-miterlimit="1" x1="325.109" y1="356.648" x2="362.4" y2="358.586"/>
<line fill="none" stroke="#000000" stroke-width="2" stroke-linejoin="round" stroke-miterlimit="1" x1="362.406" y1="578" x2="362.406" y2="207"/>
<line fill="none" stroke="#000000" stroke-width="1.8608" stroke-linejoin="round" stroke-miterlimit="1" x1="324.644" y1="279.658" x2="362.325" y2="288.962"/>
<line fill="none" stroke="#000000" stroke-width="1.8608" stroke-linejoin="round" stroke-miterlimit="1" x1="362.4" y1="430.847" x2="324.876" y2="434.8"/>
<line fill="none" stroke="#000000" stroke-width="1.8608" stroke-linejoin="round" stroke-miterlimit="1" x1="362.091" y1="502.719" x2="325.109" y2="512.486"/>
<line fill="none" stroke="#000000" stroke-width="2" stroke-linejoin="round" stroke-miterlimit="1" x1="352.406" y1="211" x2="352.406" y2="584"/>
<line fill="none" stroke="#000000" stroke-width="2" stroke-linejoin="round" stroke-miterlimit="1" x1="339.406" y1="214" x2="339.406" y2="592"/>
<circle cx="593.851" cy="188.247" r="3.315"/>
<circle cx="604.458" cy="188.247" r="3.314"/>
<circle cx="615.065" cy="188.247" r="3.314"/>
<circle cx="625.672" cy="188.247" r="3.314"/>
<circle cx="636.279" cy="188.247" r="3.315"/>
<path fill="none" stroke="#000000" stroke-width="1.838" stroke-linecap="round" stroke-linejoin="round" stroke-miterlimit="1" d="
	M20.723,56.347c1.267-2.732,2.081-6.996,2.081-11.798c0-3.947-0.553-7.524-1.448-10.193"/>
<path fill="none" stroke="#000000" stroke-width="1.838" stroke-linecap="round" stroke-linejoin="round" stroke-miterlimit="1" d="
	M13.558,34.356c-0.895,2.669-1.448,6.246-1.448,10.193c0,4.802,0.816,9.065,2.081,11.798"/>
<path fill="none" stroke="#000000" stroke-width="1.838" stroke-linecap="round" stroke-linejoin="round" stroke-miterlimit="1" d="
	M37.642,56.347c1.259-2.732,2.076-6.996,2.076-11.798c0-3.947-0.55-7.524-1.447-10.193"/>
<path fill="none" stroke="#000000" stroke-width="1.838" stroke-linecap="round" stroke-linejoin="round" stroke-miterlimit="1" d="
	M30.474,34.356c-0.896,2.669-1.448,6.246-1.448,10.193c0,4.802,0.818,9.065,2.081,11.798"/>
<path fill="none" stroke="#000000" stroke-width="1.838" stroke-linecap="round" stroke-linejoin="round" stroke-miterlimit="1" d="
	M54.555,56.347c1.266-2.732,2.08-6.996,2.08-11.798c0-3.947-0.551-7.524-1.447-10.193"/>
<path fill="none" stroke="#000000" stroke-width="1.838" stroke-linecap="round" stroke-linejoin="round" stroke-miterlimit="1" d="
	M47.393,34.356c-0.897,2.669-1.452,6.246-1.452,10.193c0,4.802,0.817,9.065,2.081,11.798"/>
<path fill="none" stroke="#000000" stroke-width="1.838" stroke-linecap="round" stroke-linejoin="round" stroke-miterlimit="1" d="
	M71.473,56.347c1.264-2.732,2.081-6.996,2.081-11.798c0-3.947-0.554-7.524-1.449-10.193"/>
<path fill="none" stroke="#000000" stroke-width="1.838" stroke-linecap="round" stroke-linejoin="round" stroke-miterlimit="1" d="
	M64.308,34.356c-0.896,2.669-1.448,6.246-1.448,10.193c0,4.802,0.815,9.065,2.081,11.798"/>
<path fill="none" stroke="#000000" stroke-width="1.838" stroke-linecap="round" stroke-linejoin="round" stroke-miterlimit="1" d="
	M87.586,56.347c1.262-2.732,2.079-6.996,2.079-11.798c0-3.947-0.553-7.524-1.45-10.193"/>
<path fill="none" stroke="#000000" stroke-width="1.838" stroke-linecap="round" stroke-linejoin="round" stroke-miterlimit="1" d="
	M80.419,34.356c-0.896,2.669-1.447,6.246-1.447,10.193c0,4.802,0.815,9.065,2.081,11.798"/>
<path fill="none" stroke="#000000" stroke-width="1.838" stroke-linecap="round" stroke-linejoin="round" stroke-miterlimit="1" d="
	M104.5,56.347c1.264-2.732,2.08-6.996,2.08-11.798c0-3.947-0.552-7.524-1.446-10.193"/>
<path fill="none" stroke="#000000" stroke-width="1.838" stroke-linecap="round" stroke-linejoin="round" stroke-miterlimit="1" d="
	M97.336,34.356c-0.896,2.669-1.448,6.246-1.448,10.193c0,4.802,0.817,9.065,2.077,11.798"/>
<path fill="none" stroke="#000000" stroke-width="1.838" stroke-linecap="round" stroke-linejoin="round" stroke-miterlimit="1" d="
	M121.416,56.347c1.264-2.732,2.081-6.996,2.081-11.798c0-3.947-0.553-7.524-1.447-10.193"/>
<path fill="none" stroke="#000000" stroke-width="1.838" stroke-linecap="round" stroke-linejoin="round" stroke-miterlimit="1" d="
	M114.254,34.356c-0.898,2.669-1.451,6.246-1.451,10.193c0,4.802,0.818,9.065,2.08,11.798"/>
<path fill="none" stroke="#000000" stroke-width="1.838" stroke-linecap="round" stroke-linejoin="round" stroke-miterlimit="1" d="
	M138.333,56.347c1.266-2.732,2.083-6.996,2.083-11.798c0-3.947-0.555-7.524-1.451-10.193"/>
<path fill="none" stroke="#000000" stroke-width="1.838" stroke-linecap="round" stroke-linejoin="round" stroke-miterlimit="1" d="
	M131.17,34.356c-0.895,2.669-1.45,6.246-1.45,10.193c0,4.802,0.815,9.065,2.08,11.798"/>
<path fill="none" stroke="#000000" stroke-width="1.838" stroke-linecap="round" stroke-linejoin="round" stroke-miterlimit="1" d="
	M155.55,56.347c1.265-2.732,2.082-6.996,2.082-11.798c0-3.947-0.555-7.524-1.451-10.193"/>
<path fill="none" stroke="#000000" stroke-width="1.838" stroke-linecap="round" stroke-linejoin="round" stroke-miterlimit="1" d="
	M148.385,34.356c-0.896,2.669-1.45,6.246-1.45,10.193c0,4.802,0.817,9.065,2.083,11.798"/>
<path fill="none" stroke="#000000" stroke-width="1.838" stroke-linecap="round" stroke-linejoin="round" stroke-miterlimit="1" d="
	M172.466,56.347c1.265-2.732,2.081-6.996,2.081-11.798c0-3.947-0.552-7.524-1.449-10.193"/>
<path fill="none" stroke="#000000" stroke-width="1.838" stroke-linecap="round" stroke-linejoin="round" stroke-miterlimit="1" d="
	M165.301,34.356c-0.895,2.669-1.446,6.246-1.446,10.193c0,4.802,0.817,9.065,2.081,11.798"/>
<path fill="none" stroke="#000000" stroke-width="1.838" stroke-linecap="round" stroke-linejoin="round" stroke-miterlimit="1" d="
	M189.383,56.347c1.262-2.732,2.08-6.996,2.08-11.798c0-3.947-0.551-7.524-1.447-10.193"/>
<path fill="none" stroke="#000000" stroke-width="1.838" stroke-linecap="round" stroke-linejoin="round" stroke-miterlimit="1" d="
	M182.218,34.356c-0.896,2.669-1.45,6.246-1.45,10.193c0,4.802,0.82,9.065,2.082,11.798"/>
<path fill="none" stroke="#000000" stroke-width="1.838" stroke-linecap="round" stroke-linejoin="round" stroke-miterlimit="1" d="
	M206.299,56.347c1.266-2.732,2.082-6.996,2.082-11.798c0-3.947-0.555-7.524-1.45-10.193"/>
<path fill="none" stroke="#000000" stroke-width="1.838" stroke-linecap="round" stroke-linejoin="round" stroke-miterlimit="1" d="
	M199.135,34.356c-0.894,2.669-1.45,6.246-1.45,10.193c0,4.802,0.818,9.065,2.081,11.798"/>
<path fill="none" stroke="#000000" stroke-width="1.838" stroke-linecap="round" stroke-linejoin="round" stroke-miterlimit="1" d="
	M222.411,56.347c1.264-2.732,2.082-6.996,2.082-11.798c0-3.947-0.554-7.524-1.45-10.193"/>
<path fill="none" stroke="#000000" stroke-width="1.838" stroke-linecap="round" stroke-linejoin="round" stroke-miterlimit="1" d="
	M215.249,34.356c-0.901,2.669-1.452,6.246-1.452,10.193c0,4.802,0.818,9.065,2.082,11.798"/>
<path fill="none" stroke="#000000" stroke-width="1.838" stroke-linecap="round" stroke-linejoin="round" stroke-miterlimit="1" d="
	M239.329,56.347c1.262-2.732,2.08-6.996,2.08-11.798c0-3.947-0.552-7.524-1.45-10.193"/>
<path fill="none" stroke="#000000" stroke-width="1.838" stroke-linecap="round" stroke-linejoin="round" stroke-miterlimit="1" d="
	M232.163,34.356c-0.895,2.669-1.451,6.246-1.451,10.193c0,4.802,0.82,9.065,2.081,11.798"/>
<path fill="none" stroke="#000000" stroke-width="1.838" stroke-linecap="round" stroke-linejoin="round" stroke-miterlimit="1" d="
	M256.243,56.347c1.265-2.732,2.082-6.996,2.082-11.798c0-3.947-0.556-7.524-1.448-10.193"/>
<path fill="none" stroke="#000000" stroke-width="1.838" stroke-linecap="round" stroke-linejoin="round" stroke-miterlimit="1" d="
	M249.078,34.356c-0.894,2.669-1.446,6.246-1.446,10.193c0,4.802,0.817,9.065,2.078,11.798"/>
<path fill="none" stroke="#000000" stroke-width="1.838" stroke-linecap="round" stroke-linejoin="round" stroke-miterlimit="1" d="
	M273.16,56.347c1.265-2.732,2.081-6.996,2.081-11.798c0-3.947-0.552-7.524-1.451-10.193"/>
<path fill="none" stroke="#000000" stroke-width="1.838" stroke-linecap="round" stroke-linejoin="round" stroke-miterlimit="1" d="
	M265.998,34.356c-0.898,2.669-1.452,6.246-1.452,10.193c0,4.802,0.817,9.065,2.081,11.798"/>
<path fill="none" stroke="#000000" stroke-width="1.838" stroke-linecap="round" stroke-linejoin="round" stroke-miterlimit="1" d="
	M290.376,56.347c1.263-2.732,2.082-6.996,2.082-11.798c0-3.947-0.552-7.524-1.449-10.193"/>
<path fill="none" stroke="#000000" stroke-width="1.838" stroke-linecap="round" stroke-linejoin="round" stroke-miterlimit="1" d="
	M283.214,34.356c-0.897,2.669-1.451,6.246-1.451,10.193c0,4.802,0.818,9.065,2.081,11.798"/>
<path fill="none" stroke="#000000" stroke-width="1.838" stroke-linecap="round" stroke-linejoin="round" stroke-miterlimit="1" d="
	M307.293,56.347c1.267-2.732,2.081-6.996,2.081-11.798c0-3.947-0.553-7.524-1.448-10.193"/>
<path fill="none" stroke="#000000" stroke-width="1.838" stroke-linecap="round" stroke-linejoin="round" stroke-miterlimit="1" d="
	M300.129,34.356c-0.896,2.669-1.448,6.246-1.448,10.193c0,4.802,0.818,9.065,2.082,11.798"/>
<path fill="none" stroke="#000000" stroke-width="1.838" stroke-linecap="round" stroke-linejoin="round" stroke-miterlimit="1" d="
	M324.208,56.347c1.267-2.732,2.082-6.996,2.082-11.798c0-3.947-0.552-7.524-1.446-10.193"/>
<path fill="none" stroke="#000000" stroke-width="1.838" stroke-linecap="round" stroke-linejoin="round" stroke-miterlimit="1" d="
	M317.045,34.356c-0.896,2.669-1.449,6.246-1.449,10.193c0,4.802,0.819,9.065,2.081,11.798"/>
<path fill="none" stroke="#000000" stroke-width="1.838" stroke-linecap="round" stroke-linejoin="round" stroke-miterlimit="1" d="
	M341.126,56.347c1.264-2.732,2.082-6.996,2.082-11.798c0-3.947-0.554-7.524-1.447-10.193"/>
<path fill="none" stroke="#000000" stroke-width="1.838" stroke-linecap="round" stroke-linejoin="round" stroke-miterlimit="1" d="
	M333.963,34.356c-0.898,2.669-1.449,6.246-1.449,10.193c0,4.802,0.816,9.065,2.08,11.798"/>
<path fill="none" stroke="#000000" stroke-width="1.838" stroke-linecap="round" stroke-linejoin="round" stroke-miterlimit="1" d="
	M357.238,56.347c1.264-2.732,2.081-6.996,2.081-11.798c0-3.947-0.554-7.524-1.446-10.193"/>
<path fill="none" stroke="#000000" stroke-width="1.838" stroke-linecap="round" stroke-linejoin="round" stroke-miterlimit="1" d="
	M350.073,34.356c-0.895,2.669-1.448,6.246-1.448,10.193c0,4.802,0.814,9.065,2.08,11.798"/>
<path fill="none" stroke="#000000" stroke-width="1.838" stroke-linecap="round" stroke-linejoin="round" stroke-miterlimit="1" d="
	M374.156,56.347c1.263-2.732,2.079-6.996,2.079-11.798c0-3.947-0.551-7.524-1.448-10.193"/>
<path fill="none" stroke="#000000" stroke-width="1.838" stroke-linecap="round" stroke-linejoin="round" stroke-miterlimit="1" d="
	M366.992,34.356c-0.898,2.669-1.45,6.246-1.45,10.193c0,4.802,0.816,9.065,2.08,11.798"/>
<path fill="none" stroke="#000000" stroke-width="1.838" stroke-linecap="round" stroke-linejoin="round" stroke-miterlimit="1" d="
	M408.286,56.347c1.267-2.732,2.084-6.996,2.084-11.798c0-3.947-0.553-7.524-1.447-10.193"/>
<path fill="none" stroke="#000000" stroke-width="1.838" stroke-linecap="round" stroke-linejoin="round" stroke-miterlimit="1" d="
	M401.124,34.356c-0.897,2.669-1.451,6.246-1.451,10.193c0,4.802,0.817,9.065,2.082,11.798"/>
<path fill="none" stroke="#000000" stroke-width="1.838" stroke-linecap="round" stroke-linejoin="round" stroke-miterlimit="1" d="
	M391.071,56.347c1.266-2.732,2.083-6.996,2.083-11.798c0-3.947-0.554-7.524-1.449-10.193"/>
<path fill="none" stroke="#000000" stroke-width="1.838" stroke-linecap="round" stroke-linejoin="round" stroke-miterlimit="1" d="
	M383.907,34.356c-0.896,2.669-1.451,6.246-1.451,10.193c0,4.802,0.818,9.065,2.082,11.798"/>
<path fill="none" stroke="#000000" stroke-width="1.838" stroke-linecap="round" stroke-linejoin="round" stroke-miterlimit="1" d="
	M425.204,56.347c1.267-2.732,2.081-6.996,2.081-11.798c0-3.947-0.552-7.524-1.446-10.193"/>
<path fill="none" stroke="#000000" stroke-width="1.838" stroke-linecap="round" stroke-linejoin="round" stroke-miterlimit="1" d="
	M418.038,34.356c-0.896,2.669-1.446,6.246-1.446,10.193c0,4.802,0.817,9.065,2.08,11.798"/>
<path fill="none" stroke="#000000" stroke-width="1.838" stroke-linecap="round" stroke-linejoin="round" stroke-miterlimit="1" d="
	M442.121,56.347c1.266-2.732,2.084-6.996,2.084-11.798c0-3.947-0.555-7.524-1.451-10.193"/>
<path fill="none" stroke="#000000" stroke-width="1.838" stroke-linecap="round" stroke-linejoin="round" stroke-miterlimit="1" d="
	M434.958,34.356c-0.895,2.669-1.451,6.246-1.451,10.193c0,4.802,0.819,9.065,2.081,11.798"/>
<path fill="none" stroke="#000000" stroke-width="1.838" stroke-linecap="round" stroke-linejoin="round" stroke-miterlimit="1" d="
	M451.872,34.356c-0.892,2.669-1.445,6.246-1.445,10.193c0,4.802,0.815,9.065,2.082,11.798"/>
<path fill="none" stroke="#000000" stroke-width="1.838" stroke-linecap="round" stroke-linejoin="round" stroke-miterlimit="1" d="
	M459.323,56.347c1.267-2.732,2.081-6.996,2.081-11.798c0-3.947-0.551-7.524-1.445-10.193"/>
<path fill="none" stroke="#000000" stroke-width="1.838" stroke-linecap="round" stroke-linejoin="round" stroke-miterlimit="1" d="
	M476.24,56.347c1.267-2.732,2.082-6.996,2.082-11.798c0-3.947-0.555-7.524-1.451-10.193"/>
<path fill="none" stroke="#000000" stroke-width="1.838" stroke-linecap="round" stroke-linejoin="round" stroke-miterlimit="1" d="
	M469.076,34.356c-0.896,2.669-1.449,6.246-1.449,10.193c0,4.802,0.818,9.065,2.081,11.798"/>
<path fill="none" stroke="#000000" stroke-width="1.838" stroke-linecap="round" stroke-linejoin="round" stroke-miterlimit="1" d="
	M493.16,56.347c1.263-2.732,2.076-6.996,2.076-11.798c0-3.947-0.552-7.524-1.445-10.193"/>
<path fill="none" stroke="#000000" stroke-width="1.838" stroke-linecap="round" stroke-linejoin="round" stroke-miterlimit="1" d="
	M485.992,34.356c-0.896,2.669-1.449,6.246-1.449,10.193c0,4.802,0.819,9.065,2.081,11.798"/>
<path fill="none" stroke="#000000" stroke-width="1.838" stroke-linecap="round" stroke-linejoin="round" stroke-miterlimit="1" d="
	M509.266,56.347c1.266-2.732,2.08-6.996,2.08-11.798c0-3.947-0.549-7.524-1.444-10.193"/>
<path fill="none" stroke="#000000" stroke-width="1.838" stroke-linecap="round" stroke-linejoin="round" stroke-miterlimit="1" d="
	M502.103,34.356c-0.896,2.669-1.447,6.246-1.447,10.193c0,4.802,0.817,9.065,2.078,11.798"/>
<path fill="none" stroke="#000000" stroke-width="1.838" stroke-linecap="round" stroke-linejoin="round" stroke-miterlimit="1" d="
	M526.183,56.347c1.266-2.732,2.081-6.996,2.081-11.798c0-3.947-0.554-7.524-1.448-10.193"/>
<path fill="none" stroke="#000000" stroke-width="1.838" stroke-linecap="round" stroke-linejoin="round" stroke-miterlimit="1" d="
	M519.021,34.356c-0.896,2.669-1.45,6.246-1.45,10.193c0,4.802,0.816,9.065,2.08,11.798"/>
<path fill="none" stroke="#000000" stroke-width="1.838" stroke-linecap="round" stroke-linejoin="round" stroke-miterlimit="1" d="
	M543.103,56.347c1.263-2.732,2.081-6.996,2.081-11.798c0-3.947-0.556-7.524-1.451-10.193"/>
<path fill="none" stroke="#000000" stroke-width="1.838" stroke-linecap="round" stroke-linejoin="round" stroke-miterlimit="1" d="
	M535.935,34.356c-0.893,2.669-1.448,6.246-1.448,10.193c0,4.802,0.818,9.065,2.084,11.798"/>
<path fill="none" stroke="#000000" stroke-width="1.838" stroke-linecap="round" stroke-linejoin="round" stroke-miterlimit="1" d="
	M560.016,56.347c1.266-2.732,2.082-6.996,2.082-11.798c0-3.947-0.552-7.524-1.448-10.193"/>
<path fill="none" stroke="#000000" stroke-width="1.838" stroke-linecap="round" stroke-linejoin="round" stroke-miterlimit="1" d="
	M552.852,34.356c-0.895,2.669-1.446,6.246-1.446,10.193c0,4.802,0.816,9.065,2.076,11.798"/>
<path fill="none" stroke="#000000" stroke-width="1.838" stroke-linecap="round" stroke-linejoin="round" stroke-miterlimit="1" d="
	M577.237,56.347c1.259-2.732,2.078-6.996,2.078-11.798c0-3.947-0.552-7.524-1.448-10.193"/>
<path fill="none" stroke="#000000" stroke-width="1.838" stroke-linecap="round" stroke-linejoin="round" stroke-miterlimit="1" d="
	M570.07,34.356c-0.897,2.669-1.45,6.246-1.45,10.193c0,4.802,0.818,9.065,2.081,11.798"/>
<path fill="none" stroke="#000000" stroke-width="1.838" stroke-linecap="round" stroke-linejoin="round" stroke-miterlimit="1" d="
	M594.151,56.347c1.266-2.732,2.081-6.996,2.081-11.798c0-3.947-0.551-7.524-1.447-10.193"/>
<path fill="none" stroke="#000000" stroke-width="1.838" stroke-linecap="round" stroke-linejoin="round" stroke-miterlimit="1" d="
	M586.988,34.356c-0.896,2.669-1.451,6.246-1.451,10.193c0,4.802,0.817,9.065,2.083,11.798"/>
<path fill="none" stroke="#000000" stroke-width="1.838" stroke-linecap="round" stroke-linejoin="round" stroke-miterlimit="1" d="
	M611.068,56.347c1.266-2.732,2.08-6.996,2.08-11.798c0-3.947-0.553-7.524-1.447-10.193"/>
<path fill="none" stroke="#000000" stroke-width="1.838" stroke-linecap="round" stroke-linejoin="round" stroke-miterlimit="1" d="
	M603.902,34.356c-0.895,2.669-1.449,6.246-1.449,10.193c0,4.802,0.816,9.065,2.082,11.798"/>
<path fill="none" stroke="#000000" stroke-width="1.838" stroke-linecap="round" stroke-linejoin="round" stroke-miterlimit="1" d="
	M627.985,56.347c1.262-2.732,2.082-6.996,2.082-11.798c0-3.947-0.555-7.524-1.453-10.193"/>
<path fill="none" stroke="#000000" stroke-width="1.838" stroke-linecap="round" stroke-linejoin="round" stroke-miterlimit="1" d="
	M620.819,34.356c-0.898,2.669-1.447,6.246-1.447,10.193c0,4.802,0.816,9.065,2.078,11.798"/>
<path fill="none" stroke="#000000" stroke-width="1.838" stroke-linecap="round" stroke-linejoin="round" stroke-miterlimit="1" d="
	M644.095,56.347c1.264-2.732,2.082-6.996,2.082-11.798c0-3.947-0.553-7.524-1.45-10.193"/>
<path fill="none" stroke="#000000" stroke-width="1.838" stroke-linecap="round" stroke-linejoin="round" stroke-miterlimit="1" d="
	M636.932,34.356c-0.898,2.669-1.449,6.246-1.449,10.193c0,4.802,0.817,9.065,2.081,11.798"/>
<path fill="none" stroke="#000000" stroke-width="1.838" stroke-linecap="round" stroke-linejoin="round" stroke-miterlimit="1" d="
	M653.848,34.356c-0.898,2.669-1.451,6.246-1.451,10.193c0,4.802,0.815,9.065,2.083,11.798"/>
<path fill="none" stroke="#000000" stroke-width="1.838" stroke-linecap="round" stroke-linejoin="round" stroke-miterlimit="1" d="
	M660.887,56.347c1.264-2.732,2.08-6.996,2.08-11.798c0-3.947-0.553-7.524-1.448-10.193"/>
<path fill="none" stroke="#000000" stroke-width="1.838" stroke-linecap="round" stroke-linejoin="round" stroke-miterlimit="1" d="
	M677.805,56.347c1.261-2.732,2.075-6.996,2.075-11.798c0-3.947-0.55-7.524-1.444-10.193"/>
<path fill="none" stroke="#000000" stroke-width="1.838" stroke-linecap="round" stroke-linejoin="round" stroke-miterlimit="1" d="
	M670.638,34.356c-0.897,2.669-1.448,6.246-1.448,10.193c0,4.802,0.816,9.065,2.081,11.798"/>
<path fill="none" stroke="#000000" stroke-width="1.838" stroke-linecap="round" stroke-linejoin="round" stroke-miterlimit="1" d="
	M694.717,56.347c1.265-2.732,2.085-6.996,2.085-11.798c0-3.947-0.555-7.524-1.453-10.193"/>
<path fill="none" stroke="#000000" stroke-width="1.838" stroke-linecap="round" stroke-linejoin="round" stroke-miterlimit="1" d="
	M687.554,34.356c-0.895,2.669-1.45,6.246-1.45,10.193c0,4.802,0.818,9.065,2.081,11.798"/>
<path fill="none" stroke="#000000" stroke-width="1.838" stroke-linecap="round" stroke-linejoin="round" stroke-miterlimit="1" d="
	M711.636,56.347c1.264-2.732,2.083-6.996,2.083-11.798c0-3.947-0.554-7.524-1.449-10.193"/>
<path fill="none" stroke="#000000" stroke-width="1.838" stroke-linecap="round" stroke-linejoin="round" stroke-miterlimit="1" d="
	M704.472,34.356c-0.894,2.669-1.448,6.246-1.448,10.193c0,4.802,0.814,9.065,2.08,11.798"/>
<path fill="none" stroke="#000000" stroke-width="1.838" stroke-linecap="round" stroke-linejoin="round" stroke-miterlimit="1" d="
	M727.749,56.347c1.264-2.732,2.079-6.996,2.079-11.798c0-3.947-0.552-7.524-1.448-10.193"/>
<path fill="none" stroke="#000000" stroke-width="1.838" stroke-linecap="round" stroke-linejoin="round" stroke-miterlimit="1" d="
	M720.583,34.356c-0.896,2.669-1.446,6.246-1.446,10.193c0,4.802,0.814,9.065,2.081,11.798"/>
<path fill="none" stroke="#000000" stroke-width="1.838" stroke-linecap="round" stroke-linejoin="round" stroke-miterlimit="1" d="
	M744.664,56.347c1.263-2.732,2.081-6.996,2.081-11.798c0-3.947-0.554-7.524-1.449-10.193"/>
<path fill="none" stroke="#000000" stroke-width="1.838" stroke-linecap="round" stroke-linejoin="round" stroke-miterlimit="1" d="
	M737.499,34.356c-0.896,2.669-1.448,6.246-1.448,10.193c0,4.802,0.818,9.065,2.082,11.798"/>
<path fill="none" stroke="#000000" stroke-width="1.838" stroke-linecap="round" stroke-linejoin="round" stroke-miterlimit="1" d="
	M761.58,56.347c1.267-2.732,2.082-6.996,2.082-11.798c0-3.947-0.554-7.524-1.448-10.193"/>
<path fill="none" stroke="#000000" stroke-width="1.838" stroke-linecap="round" stroke-linejoin="round" stroke-miterlimit="1" d="
	M754.419,34.356c-0.898,2.669-1.451,6.246-1.451,10.193c0,4.802,0.818,9.065,2.081,11.798"/>
<path fill="none" stroke="#000000" stroke-width="1.838" stroke-linecap="round" stroke-linejoin="round" stroke-miterlimit="1" d="
	M778.497,56.347c1.267-2.732,2.081-6.996,2.081-11.798c0-3.947-0.553-7.524-1.45-10.193"/>
<path fill="none" stroke="#000000" stroke-width="1.838" stroke-linecap="round" stroke-linejoin="round" stroke-miterlimit="1" d="
	M771.333,34.356c-0.896,2.669-1.449,6.246-1.449,10.193c0,4.802,0.816,9.065,2.083,11.798"/>
<path fill="none" stroke="#000000" stroke-width="1.838" stroke-linecap="round" stroke-linejoin="round" stroke-miterlimit="1" d="
	M795.713,56.347c1.266-2.732,2.081-6.996,2.081-11.798c0-3.947-0.555-7.524-1.451-10.193"/>
<path fill="none" stroke="#000000" stroke-width="1.838" stroke-linecap="round" stroke-linejoin="round" stroke-miterlimit="1" d="
	M788.548,34.356c-0.894,2.669-1.447,6.246-1.447,10.193c0,4.802,0.815,9.065,2.08,11.798"/>
<path fill="none" stroke="#000000" stroke-width="1.838" stroke-linecap="round" stroke-linejoin="round" stroke-miterlimit="1" d="
	M812.63,56.347c1.263-2.732,2.081-6.996,2.081-11.798c0-3.947-0.554-7.524-1.448-10.193"/>
<path fill="none" stroke="#000000" stroke-width="1.838" stroke-linecap="round" stroke-linejoin="round" stroke-miterlimit="1" d="
	M805.465,34.356c-0.895,2.669-1.448,6.246-1.448,10.193c0,4.802,0.818,9.065,2.081,11.798"/>
<path fill="none" stroke="#000000" stroke-width="1.838" stroke-linecap="round" stroke-linejoin="round" stroke-miterlimit="1" d="
	M829.546,56.347c1.265-2.732,2.079-6.996,2.079-11.798c0-3.947-0.55-7.524-1.445-10.193"/>
<path fill="none" stroke="#000000" stroke-width="1.838" stroke-linecap="round" stroke-linejoin="round" stroke-miterlimit="1" d="
	M822.383,34.356c-0.899,2.669-1.452,6.246-1.452,10.193c0,4.802,0.82,9.065,2.085,11.798"/>
<path fill="none" stroke="#000000" stroke-width="1.838" stroke-linecap="round" stroke-linejoin="round" stroke-miterlimit="1" d="
	M846.464,56.347c1.264-2.732,2.081-6.996,2.081-11.798c0-3.947-0.557-7.524-1.451-10.193"/>
<path fill="none" stroke="#000000" stroke-width="1.838" stroke-linecap="round" stroke-linejoin="round" stroke-miterlimit="1" d="
	M839.299,34.356c-0.896,2.669-1.45,6.246-1.45,10.193c0,4.802,0.818,9.065,2.081,11.798"/>
<path fill="none" stroke="#000000" stroke-width="1.838" stroke-linecap="round" stroke-linejoin="round" stroke-miterlimit="1" d="
	M862.577,56.347c1.263-2.732,2.081-6.996,2.081-11.798c0-3.947-0.556-7.524-1.451-10.193"/>
<path fill="none" stroke="#000000" stroke-width="1.838" stroke-linecap="round" stroke-linejoin="round" stroke-miterlimit="1" d="
	M855.412,34.356c-0.9,2.669-1.452,6.246-1.452,10.193c0,4.802,0.819,9.065,2.082,11.798"/>
<path fill="none" stroke="#000000" stroke-width="1.838" stroke-linecap="round" stroke-linejoin="round" stroke-miterlimit="1" d="
	M879.493,56.347c1.261-2.732,2.079-6.996,2.079-11.798c0-3.947-0.551-7.524-1.447-10.193"/>
<path fill="none" stroke="#000000" stroke-width="1.838" stroke-linecap="round" stroke-linejoin="round" stroke-miterlimit="1" d="
	M872.326,34.356c-0.896,2.669-1.451,6.246-1.451,10.193c0,4.802,0.821,9.065,2.081,11.798"/>
<path fill="none" stroke="#000000" stroke-width="1.838" stroke-linecap="round" stroke-linejoin="round" stroke-miterlimit="1" d="
	M896.409,56.347c1.263-2.732,2.08-6.996,2.08-11.798c0-3.947-0.556-7.524-1.448-10.193"/>
<path fill="none" stroke="#000000" stroke-width="1.838" stroke-linecap="round" stroke-linejoin="round" stroke-miterlimit="1" d="
	M889.242,34.356c-0.895,2.669-1.445,6.246-1.445,10.193c0,4.802,0.816,9.065,2.079,11.798"/>
<path d="M904.906,180c-0.553,0-1-0.448-1-1V18.219c0-0.402,0.241-0.765,0.611-0.92c0.118-0.055,3.204-1.542,2.905-7.992
	c-0.285-6.193-3.666-7.189-4.185-7.307H5.471C4.72,2.484,2,4.582,2,9.556c0,6.357,3.37,8.327,3.513,8.407
	c0.314,0.178,0.518,0.514,0.518,0.875L6.072,172.75h892.709c0.553,0,1,0.448,1,1c0,0.553-0.447,1-1,1H5.072c-0.552,0-1-0.447-1-1
	L4.031,19.37C2.828,18.466,0,15.685,0,9.556c0-6.92,4.545-9.345,4.739-9.445C4.881,0.038,5.038,0,5.198,0h898.136
	c0.049,0,0.098,0.003,0.146,0.011c0.227,0.034,5.56,0.917,5.94,9.204c0.288,6.217-2.294,8.737-3.515,9.575V179
	C905.906,179.552,905.458,180,904.906,180z"/>
<path fill="none" stroke="#000000" stroke-width="1.8608" stroke-linecap="round" stroke-linejoin="round" stroke-miterlimit="1" d="
	M19.708,625.297"/>
<line fill="none" x1="20.33" y1="414.252" x2="20.483" y2="414.41"/>
<g>
	<path fill="none" stroke="#000000" stroke-width="1.9538" stroke-linejoin="round" stroke-miterlimit="1" d="M892.618,122.265
		c0,20.897-5.643,37.838-17.098,37.838c-11.112,0-17.095-16.941-17.095-37.838c0-20.896,5.982-37.834,17.095-37.834
		C887.23,84.431,892.618,101.369,892.618,122.265z"/>
	<path fill="none" stroke="#000000" stroke-width="1.3477" stroke-linejoin="round" stroke-miterlimit="1" d="M886.549,122.5
		c0,15.587-3.337,30.483-10.903,30.483c-7.133,0-10.909-14.896-10.909-30.483c0-15.585,3.261-30.78,10.909-30.78
		C882.699,91.72,886.549,106.914,886.549,122.5z"/>
</g>
<g>
	<path fill="none" stroke="#000000" stroke-width="1.9538" stroke-linejoin="round" stroke-miterlimit="1" d="M52.014,122.265
		c0,20.897-5.643,37.838-17.098,37.838c-11.112,0-17.095-16.941-17.095-37.838c0-20.896,5.982-37.834,17.095-37.834
		C46.626,84.431,52.014,101.369,52.014,122.265z"/>
	<path fill="none" stroke="#000000" stroke-width="1.3477" stroke-linejoin="round" stroke-miterlimit="1" d="M45.945,122.5
		c0,15.587-3.337,30.483-10.903,30.483c-7.133,0-10.909-14.896-10.909-30.483c0-15.585,3.261-30.78,10.909-30.78
		C42.095,91.72,45.945,106.914,45.945,122.5z"/>
</g>
<circle cx="593.712" cy="372.464" r="3.314"/>
<circle cx="604.318" cy="372.464" r="3.314"/>
<circle cx="614.926" cy="372.464" r="3.314"/>
<circle cx="625.533" cy="372.464" r="3.314"/>
<circle cx="636.141" cy="372.464" r="3.314"/>
<rect x="845.365" y="627" fill="#FFFFFF" width="60" height="130"/>
<path d="M365.883,207.86c0,1.885-1.526,3.414-3.411,3.414s-3.411-1.529-3.411-3.414c0-1.88,1.526-3.409,3.411-3.409
	S365.883,205.98,365.883,207.86z"/>
<line fill="none" stroke="#000000" stroke-width="2" stroke-linecap="round" stroke-linejoin="round" stroke-miterlimit="1" x1="265.406" y1="627" x2="265.406" y2="757"/>
<rect x="694.406" y="459" fill="#FFFFFF" width="12" height="2"/>
<path fill="none" stroke="#000000" stroke-width="7.4431" stroke-linejoin="round" stroke-miterlimit="1" d="M266.262,591.803"/>
<g>
</g>
<g>
	<path d="M807.767,636.462v61.406H679.374v-61.406H807.767 M811.489,632.74H675.653v68.85h135.836V632.74L811.489,632.74z"/>
</g>
<g>
	<linearGradient id="SVGID_3_" gradientUnits="userSpaceOnUse" x1="585.4058" y1="397.4999" x2="644.4058" y2="397.4999">
		<stop  offset="0" style="stop-color:#FFFFFF"/>
		<stop  offset="0.1126" style="stop-color:#F7F7F7"/>
		<stop  offset="0.2909" style="stop-color:#E0E0E0"/>
		<stop  offset="0.5125" style="stop-color:#BBBBBB"/>
		<stop  offset="0.7662" style="stop-color:#898789"/>
		<stop  offset="1" style="stop-color:#545254"/>
	</linearGradient>
	<path fill="url(#SVGID_3_)" d="M585.406,381c0,1,0,2.719,0,3.481c0,17.03,6.548,25.519,8.643,29.519h40.393
		c2.738-5,9.965-13.106,9.965-28.741c0-0.897,0-3.259,0-4.259H585.406z"/>
	<path d="M585.406,383h59c0-1,0-2,0-3h-59C585.406,381,585.406,382,585.406,383z"/>
	<path d="M641.197,402c1.197-3,2.5-6.833,2.834-11h-58.312c0.406,3.781,1.5,8.219,2.406,11H641.197z"/>
	<path d="M591.197,409c0.606,1.332,1.981,3.917,2.688,5h40.481c0.666-0.98,2.583-3.958,3.166-5H591.197z"/>
</g>
<path fill="#FFFFFF" d="M4.102,179c0,0,0,184.548,0,205.481c0,17.03,59,16.413,59,0.778c0-19.578,0-19.534,0-206.259H4.102z"/>
<path d="M39.102,356.415c0,3.596-2.901,6.513-6.5,6.513l0,0c-3.598,0-6.5-2.917-6.5-6.513V207.552c0-3.597,2.902-6.512,6.5-6.512
	l0,0c3.599,0,6.5,2.915,6.5,6.512V356.415z"/>
<rect x="2.102" y="627" fill="#FFFFFF" width="60" height="130"/>
<circle cx="12.546" cy="188.247" r="3.315"/>
<circle cx="23.153" cy="188.247" r="3.314"/>
<circle cx="33.761" cy="188.247" r="3.314"/>
<circle cx="44.368" cy="188.247" r="3.314"/>
<circle cx="54.975" cy="188.247" r="3.315"/>
<circle cx="12.408" cy="372.464" r="3.314"/>
<circle cx="23.014" cy="372.464" r="3.314"/>
<circle cx="33.622" cy="372.464" r="3.314"/>
<circle cx="44.229" cy="372.464" r="3.314"/>
<circle cx="54.836" cy="372.464" r="3.314"/>
<g>
	<linearGradient id="SVGID_4_" gradientUnits="userSpaceOnUse" x1="4.1016" y1="397.4999" x2="63.1016" y2="397.4999">
		<stop  offset="0" style="stop-color:#FFFFFF"/>
		<stop  offset="0.1126" style="stop-color:#F7F7F7"/>
		<stop  offset="0.2909" style="stop-color:#E0E0E0"/>
		<stop  offset="0.5125" style="stop-color:#BBBBBB"/>
		<stop  offset="0.7662" style="stop-color:#898789"/>
		<stop  offset="1" style="stop-color:#545254"/>
	</linearGradient>
	<path fill="url(#SVGID_4_)" d="M4.102,381c0,1,0,2.719,0,3.481c0,17.03,6.548,25.519,8.643,29.519h40.393
		c2.738-5,9.965-13.106,9.965-28.741c0-0.897,0-3.259,0-4.259H4.102z"/>
	<path d="M4.102,383h59c0-1,0-2,0-3h-59C4.102,381,4.102,382,4.102,383z"/>
	<path d="M59.893,402c1.197-3,2.5-6.833,2.834-11H4.414c0.406,3.781,1.5,8.219,2.406,11H59.893z"/>
	<path d="M9.893,409c0.606,1.332,1.981,3.917,2.688,5h40.48c0.666-0.98,2.583-3.958,3.166-5H9.893z"/>
</g>
<path fill="#FFFFFF" d="M847.018,179c0,0,0,184.548,0,205.481c0,17.03,59,16.413,59,0.778c0-19.578,0-19.534,0-206.259H847.018z"/>
<circle cx="855.463" cy="188.247" r="3.315"/>
<circle cx="866.07" cy="188.247" r="3.314"/>
<circle cx="876.677" cy="188.247" r="3.314"/>
<circle cx="887.284" cy="188.247" r="3.314"/>
<circle cx="897.892" cy="188.247" r="3.315"/>
<circle cx="855.324" cy="372.464" r="3.314"/>
<circle cx="865.931" cy="372.464" r="3.314"/>
<circle cx="876.539" cy="372.464" r="3.314"/>
<circle cx="887.145" cy="372.464" r="3.314"/>
<circle cx="897.753" cy="372.464" r="3.314"/>
<g>
	<linearGradient id="SVGID_5_" gradientUnits="userSpaceOnUse" x1="847.0181" y1="397.4999" x2="906.0181" y2="397.4999">
		<stop  offset="0" style="stop-color:#FFFFFF"/>
		<stop  offset="0.1126" style="stop-color:#F7F7F7"/>
		<stop  offset="0.2909" style="stop-color:#E0E0E0"/>
		<stop  offset="0.5125" style="stop-color:#BBBBBB"/>
		<stop  offset="0.7662" style="stop-color:#898789"/>
		<stop  offset="1" style="stop-color:#545254"/>
	</linearGradient>
	<path fill="url(#SVGID_5_)" d="M847.018,381c0,1,0,2.719,0,3.481c0,17.03,6.548,25.519,8.643,29.519h40.393
		c2.738-5,9.965-13.106,9.965-28.741c0-0.897,0-3.259,0-4.259H847.018z"/>
	<path d="M847.018,383h59c0-1,0-2,0-3h-59C847.018,381,847.018,382,847.018,383z"/>
	<path d="M902.809,402c1.197-3,2.5-6.833,2.834-11h-58.312c0.406,3.781,1.5,8.219,2.406,11H902.809z"/>
	<path d="M852.809,409c0.606,1.332,1.981,3.917,2.688,5h40.481c0.666-0.98,2.583-3.958,3.166-5H852.809z"/>
</g>
<path fill="#FFFFFF" d="M265.281,179c0,0,0,184.548,0,205.481c0,17.03,59,16.413,59,0.778c0-19.578,0-19.534,0-206.259H265.281z"/>
<path d="M300.656,356.415c0,3.596-2.901,6.513-6.5,6.513l0,0c-3.598,0-6.5-2.917-6.5-6.513V207.552c0-3.597,2.902-6.512,6.5-6.512
	l0,0c3.599,0,6.5,2.915,6.5,6.512V356.415z"/>
<rect x="263.906" y="627" fill="#FFFFFF" width="60" height="132.5"/>
<circle cx="274.101" cy="188.247" r="3.315"/>
<circle cx="284.708" cy="188.247" r="3.314"/>
<circle cx="295.315" cy="188.247" r="3.314"/>
<circle cx="305.922" cy="188.247" r="3.314"/>
<circle cx="316.529" cy="188.247" r="3.315"/>
<circle cx="273.962" cy="372.464" r="3.314"/>
<circle cx="284.568" cy="372.464" r="3.314"/>
<circle cx="295.176" cy="372.464" r="3.314"/>
<circle cx="305.783" cy="372.464" r="3.314"/>
<circle cx="316.391" cy="372.464" r="3.314"/>
<g>
	<linearGradient id="SVGID_6_" gradientUnits="userSpaceOnUse" x1="593.606" y1="517.1644" x2="634.1363" y2="517.1644">
		<stop  offset="0" style="stop-color:#AAA6A5"/>
		<stop  offset="0.1862" style="stop-color:#A29E9D"/>
		<stop  offset="0.4807" style="stop-color:#8B8888"/>
		<stop  offset="0.8447" style="stop-color:#666465"/>
		<stop  offset="1" style="stop-color:#545254"/>
	</linearGradient>
	<rect x="593.606" y="413.17" fill="url(#SVGID_6_)" width="40.53" height="207.988"/>
	<linearGradient id="SVGID_7_" gradientUnits="userSpaceOnUse" x1="12.3018" y1="517.1644" x2="52.8321" y2="517.1644">
		<stop  offset="0" style="stop-color:#AAA6A5"/>
		<stop  offset="0.1862" style="stop-color:#A29E9D"/>
		<stop  offset="0.4807" style="stop-color:#8B8888"/>
		<stop  offset="0.8447" style="stop-color:#666465"/>
		<stop  offset="1" style="stop-color:#545254"/>
	</linearGradient>
	<rect x="12.302" y="413.17" fill="url(#SVGID_7_)" width="40.53" height="207.988"/>
	<linearGradient id="SVGID_8_" gradientUnits="userSpaceOnUse" x1="855.2183" y1="517.1644" x2="895.7486" y2="517.1644">
		<stop  offset="0" style="stop-color:#AAA6A5"/>
		<stop  offset="0.1862" style="stop-color:#A29E9D"/>
		<stop  offset="0.4807" style="stop-color:#8B8888"/>
		<stop  offset="0.8447" style="stop-color:#666465"/>
		<stop  offset="1" style="stop-color:#545254"/>
	</linearGradient>
	<rect x="855.218" y="413.17" fill="url(#SVGID_8_)" width="40.53" height="207.988"/>
	<linearGradient id="SVGID_9_" gradientUnits="userSpaceOnUse" x1="273.856" y1="517.1644" x2="314.3863" y2="517.1644">
		<stop  offset="0" style="stop-color:#AAA6A5"/>
		<stop  offset="0.1862" style="stop-color:#A29E9D"/>
		<stop  offset="0.4807" style="stop-color:#8B8888"/>
		<stop  offset="0.8447" style="stop-color:#666465"/>
		<stop  offset="1" style="stop-color:#545254"/>
	</linearGradient>
	<rect x="273.856" y="413.17" fill="url(#SVGID_9_)" width="40.53" height="207.988"/>
</g>
<polygon points="267.051,608.75 321.827,608.75 316.594,619.259 270.774,619.199 "/>
<rect x="263.906" y="618.75" width="60" height="9"/>
<g>
	<path fill="#F1EEED" d="M21.102,600c-0.552,0-1-0.449-1-1V424c0-0.553,0.448-1,1-1c0.552,0,1,0.447,1,1v175
		C22.102,599.551,21.654,600,21.102,600z"/>
	<path fill="#F1EEED" d="M32.102,600c-0.552,0-1-0.449-1-1V424c0-0.553,0.448-1,1-1s1,0.447,1,1v175
		C33.102,599.551,32.654,600,32.102,600z"/>
	<path fill="#F1EEED" d="M43.102,600c-0.552,0-1-0.449-1-1V424c0-0.553,0.448-1,1-1s1,0.447,1,1v175
		C44.102,599.551,43.654,600,43.102,600z"/>
	<path fill="#F1EEED" d="M282.656,600c-0.552,0-1-0.449-1-1V424c0-0.553,0.448-1,1-1c0.552,0,1,0.447,1,1v175
		C283.656,599.551,283.208,600,282.656,600z"/>
	<path fill="#F1EEED" d="M293.656,600c-0.552,0-1-0.449-1-1V424c0-0.553,0.448-1,1-1c0.552,0,1,0.447,1,1v175
		C294.656,599.551,294.208,600,293.656,600z"/>
	<path fill="#F1EEED" d="M304.656,600c-0.552,0-1-0.449-1-1V424c0-0.553,0.448-1,1-1c0.552,0,1,0.447,1,1v175
		C305.656,599.551,305.208,600,304.656,600z"/>
</g>
<g>
	<linearGradient id="SVGID_10_" gradientUnits="userSpaceOnUse" x1="265.2808" y1="397.4999" x2="324.2808" y2="397.4999">
		<stop  offset="0" style="stop-color:#FFFFFF"/>
		<stop  offset="0.1126" style="stop-color:#F7F7F7"/>
		<stop  offset="0.2909" style="stop-color:#E0E0E0"/>
		<stop  offset="0.5125" style="stop-color:#BBBBBB"/>
		<stop  offset="0.7662" style="stop-color:#898789"/>
		<stop  offset="1" style="stop-color:#545254"/>
	</linearGradient>
	<path fill="url(#SVGID_10_)" d="M265.281,381c0,1,0,2.719,0,3.481c0,17.03,6.548,25.519,8.643,29.519h40.393
		c2.738-5,9.965-13.106,9.965-28.741c0-0.897,0-3.259,0-4.259H265.281z"/>
	<path d="M265.281,383h59c0-1,0-2,0-3h-59C265.281,381,265.281,382,265.281,383z"/>
	<path d="M321.072,402c1.197-3,2.5-6.833,2.834-11h-58.312c0.406,3.781,1.5,8.219,2.406,11H321.072z"/>
	<path d="M271.072,409c0.605,1.332,1.98,3.917,2.688,5h40.48c0.666-0.98,2.583-3.958,3.166-5H271.072z"/>
</g>
<path fill="none" stroke="#000000" stroke-width="1.8608" stroke-linecap="round" stroke-linejoin="round" stroke-miterlimit="1" d="
	M362.091,211.274c0,0-14.421-4.421-25.196,3.721c-8.273,6.248-12.019,15.131-12.019,35.356l0.175,350.291"/>
<polyline fill="none" stroke="#000000" stroke-width="2" stroke-linecap="round" stroke-linejoin="round" stroke-miterlimit="1" points="
	584.301,600.5 546.958,577.099 547.051,724.695 584.717,756 "/>
<line fill="none" stroke="#000000" stroke-width="1.8608" stroke-linejoin="round" stroke-miterlimit="1" x1="584.348" y1="356.648" x2="547.057" y2="358.586"/>
<line fill="none" stroke="#000000" stroke-width="2" stroke-linejoin="round" stroke-miterlimit="1" x1="547.051" y1="578" x2="547.051" y2="207"/>
<line fill="none" stroke="#000000" stroke-width="1.8608" stroke-linejoin="round" stroke-miterlimit="1" x1="584.813" y1="279.658" x2="547.132" y2="288.962"/>
<line fill="none" stroke="#000000" stroke-width="1.8608" stroke-linejoin="round" stroke-miterlimit="1" x1="547.057" y1="430.847" x2="584.581" y2="434.8"/>
<line fill="none" stroke="#000000" stroke-width="1.8608" stroke-linejoin="round" stroke-miterlimit="1" x1="547.366" y1="502.719" x2="584.348" y2="512.486"/>
<line fill="none" stroke="#000000" stroke-width="2" stroke-linejoin="round" stroke-miterlimit="1" x1="557.051" y1="211" x2="557.051" y2="584"/>
<line fill="none" stroke="#000000" stroke-width="2" stroke-linejoin="round" stroke-miterlimit="1" x1="570.051" y1="214" x2="570.051" y2="592"/>
<path d="M543.574,207.86c0,1.885,1.526,3.414,3.411,3.414c1.885,0,3.411-1.529,3.411-3.414c0-1.88-1.526-3.409-3.411-3.409
	C545.1,204.451,543.574,205.98,543.574,207.86z"/>
<path fill="none" stroke="#000000" stroke-width="1.8608" stroke-linecap="round" stroke-linejoin="round" stroke-miterlimit="1" d="
	M547.366,211.274c0,0,14.421-4.421,25.196,3.721c8.273,6.248,12.018,15.131,12.018,35.356l-0.175,350.291"/>
<g>
	<polygon fill="none" stroke="#000000" stroke-width="1.9067" stroke-linejoin="round" stroke-miterlimit="1" points="
		873.985,638.557 855.044,691.578 873.985,744.598 894.647,691.029 	"/>
	<polygon fill="none" stroke="#000000" stroke-width="1.3153" stroke-linejoin="round" stroke-miterlimit="1" points="
		874.383,653.83 861.035,691.047 874.383,728.883 889.107,691.029 	"/>
</g>
<g>
	<polygon fill="none" stroke="#000000" stroke-width="1.9067" stroke-linejoin="round" stroke-miterlimit="1" points="
		294.088,638.557 275.148,691.578 294.088,744.598 314.75,691.029 	"/>
	<polygon fill="none" stroke="#000000" stroke-width="1.3153" stroke-linejoin="round" stroke-miterlimit="1" points="
		294.487,653.83 281.138,691.047 294.487,728.883 309.211,691.029 	"/>
</g>
<g>
	<polygon fill="none" stroke="#000000" stroke-width="1.9067" stroke-linejoin="round" stroke-miterlimit="1" points="
		32.744,638.557 13.803,691.578 32.744,744.598 53.406,691.029 	"/>
	<polygon fill="none" stroke="#000000" stroke-width="1.3153" stroke-linejoin="round" stroke-miterlimit="1" points="
		33.142,653.83 19.793,691.047 33.142,728.883 47.866,691.029 	"/>
</g>
<polygon points="848.51,608 903.286,608 898.053,618.509 852.233,618.449 "/>
<rect x="845.365" y="618" width="60" height="9"/>
<line fill="none" stroke="#000000" stroke-width="1.5" stroke-linecap="round" stroke-linejoin="round" stroke-miterlimit="1" x1="753.406" y1="490.321" x2="787.99" y2="490.321"/>
<g>
	<path d="M228.767,636.462v61.406H100.374v-61.406H228.767 M232.489,632.74H96.653v68.85h135.836V632.74L232.489,632.74z"/>
</g>
<g>
	<path d="M238.071,627.159v80.014H91.07v-80.014H238.071 M241.792,623.437H87.348v87.457h154.444V623.437L241.792,623.437z"/>
</g>
<g>
	
		<path fill="#FFFFFF" stroke="#000000" stroke-width="1.5" stroke-linecap="round" stroke-linejoin="round" stroke-miterlimit="1" d="
		M560.616,454.077c-0.583,0.75-0.69,2.395-2.001,2.219l-13.156-2.537c-1.312-0.173-2.544-1.407-2.246-3.139
		c0.318-1.85,1.941-2.347,3.254-2.171l12.775,2.163c1.311,0.175,0.588,1.56,0.588,2.885L560.616,454.077z"/>
</g>
<g>
	<defs>
		<rect id="SVGID_11_" x="177.406" y="517.569" width="86" height="71"/>
	</defs>
	<clipPath id="SVGID_12_">
		<use xlink:href="#SVGID_11_"  overflow="visible"/>
	</clipPath>
	<path clip-path="url(#SVGID_12_)" fill="#A8A2A7" d="M774.744,1081.379c3.163-22.982-9.699-36.688-14.338-41.115
		c-4.64-4.428-15.603-8.223-20.452-9.277c-4.85-1.057-7.38-3.584-17.501-4.85c-10.12-1.266-17.5,0.211-20.03,0.844
		c-2.53,0.633-5.482-1.055-5.482-1.055s-1.055,0.001-0.422,1.688c0.632,1.686,2.319,4.006-1.476,3.584
		c-3.796-0.422-2.108,0.842-1.477,1.686c0.633,0.845,4.217,0.845,4.217,2.109c0,1.266-1.054,4.005,0.212,5.904
		c0,0,1.265,1.896,1.897,3.373c0.632,1.477,0.421,4.428,2.951,4.639c2.53,0.211,4.218,0.211,6.747-2.742
		c2.53-2.951,6.115-3.372,6.959-0.842c0.843,2.53,0,3.373,0.632,4.639c0.633,1.265,1.686,2.531,0,2.951
		c-1.687,0.422-6.325-1.898-8.223-2.319c0,0-2.093-0.859-4.803-0.776c-3.463,0.107-7.69,1.363-7.216,3.729
		c0.422,2.109,3.189,2.347,5.06,2.107c1.871-0.236,3.268-0.525,4.217,0.213c0,0,9.487,5.06,12.018,6.113
		c2.53,1.055,7.592,2.32,8.013,4.639c0,0,1.265,4.639,1.054,8.645c-0.21,4.008,0.633,10.965-5.06,12.23
		c-5.693,1.267-0.633,6.114,1.897,5.481c2.53-0.632,6.746-2.317,8.012-7.168c1.265-4.851,3.163-10.544,3.374-13.074
		c0.211-2.531,1.055-7.167,2.53-7.167c1.476,0,2.529,2.32,2.318,4.428c-0.21,2.107,0,5.271,0.423,6.957
		c0.422,1.688,3.584,4.639,2.74,5.272c-0.843,0.633-4.428,0-4.639,1.476c-0.21,1.478-0.843,8.014,0.633,9.066"/>
</g>
<linearGradient id="SVGID_13_" gradientUnits="userSpaceOnUse" x1="96.6604" y1="512.9445" x2="186.5184" y2="512.9445">
	<stop  offset="0" style="stop-color:#AEABAC"/>
	<stop  offset="0.275" style="stop-color:#B6B3B3"/>
	<stop  offset="0.7088" style="stop-color:#CDC9C8"/>
	<stop  offset="1" style="stop-color:#E0DBD9"/>
</linearGradient>
<path fill="url(#SVGID_13_)" d="M186.448,482.33c-0.727-22.027-12.992-42.191-44.858-42.191s-44.132,20.164-44.858,42.191
	c-0.931,28.221,7.643,37.601,7.643,74.35c0,7.719,0,28.82,0,28.82h3.723c0,0,0-13.588,0-27.19h66.987c0,13.602,0,27.44,0,27.44
	h3.723c0,0,0-21.352,0-29.07C178.806,519.931,187.378,510.551,186.448,482.33z M179.532,493.834l-17.941-17.94l12.188-12.192
	c2.646,4.489,4.467,9.788,5.23,15.885C179.593,484.256,179.696,489.002,179.532,493.834z M172.776,462.077l-12.501,12.499
	L148.45,462.75l11.802-11.802C165.314,453.538,169.57,457.269,172.776,462.077z M123.988,463.254l10.664,10.662l-10.78,10.78
	l-10.662-10.662L123.988,463.254z M135.966,475.232l11.827,11.828l-10.78,10.778l-11.825-11.826L135.966,475.232z M137.283,473.915
	l9.85-9.851l11.827,11.829l-9.852,9.85L137.283,473.915z M158.497,450.071l-11.363,11.363l-14.027-14.027
	c2.634-0.475,5.379-0.743,8.251-0.743C147.65,446.663,153.436,447.826,158.497,450.071z M130.911,447.845l14.906,14.905
	l-9.851,9.852l-10.662-10.664l5.778-5.779c0.363-0.364,0.363-0.951,0-1.315c-0.364-0.364-0.953-0.364-1.315,0l-17.874,17.875
	l-4.875-4.877C111.49,457.314,119.958,450.445,130.911,447.845z M103.909,479.586c0.446-3.561,1.265-6.834,2.365-9.857l4.304,4.305
	l-4.188,4.185c-0.362,0.365-0.362,0.954,0,1.317c0.183,0.182,0.42,0.274,0.658,0.274c0.238,0,0.476-0.093,0.658-0.274l4.187-4.188
	l10.662,10.664l-12.442,12.444c-0.364,0.365-0.364,0.953,0,1.316c0.181,0.182,0.42,0.273,0.657,0.273
	c0.237,0,0.476-0.091,0.657-0.273l12.444-12.444l11.827,11.826L106.95,527.9C105.141,510.606,102.015,494.717,103.909,479.586z
	 M140.274,545.285h-21.327l19.271-19.271l10.662,10.666L140.274,545.285z M150.196,537.994l7.29,7.291h-14.58L150.196,537.994z
	 M139.532,524.699l6.864-6.863c0.363-0.365,0.363-0.953,0-1.316c-0.363-0.364-0.952-0.364-1.316,0l-6.862,6.865l-4.809-4.809
	c-0.363-0.363-0.952-0.363-1.316,0c-0.363,0.361-0.363,0.95,0,1.315l4.809,4.808l-20.584,20.586h-8.254
	c-0.077-5.12-0.408-10.113-0.874-14.991l29.824-29.824l24.038,24.038l-10.855,10.855L139.532,524.699z M160.118,545.285
	l-8.606-8.606l10.855-10.857l12.961,12.96c-0.149,2.825-0.244,5.688-0.244,8.596v-2.094H160.118z M175.479,536.305l-11.796-11.797
	l6.476-6.477l-1.315-1.318l-6.477,6.479l-24.037-24.037l10.779-10.782l11.786,11.789c0.183,0.181,0.42,0.272,0.658,0.272
	c0.238,0,0.475-0.091,0.658-0.272c0.362-0.367,0.362-0.954,0-1.316l-11.787-11.786l9.851-9.853l19.151,19.149
	C178.755,508.928,176.416,522.135,175.479,536.305z"/>
<path fill="#FFFFFF" stroke="#000000" stroke-width="1.5" stroke-linecap="round" stroke-linejoin="round" stroke-miterlimit="1" d="
	M785.49,474.659c0,8.421-5.862,15.247-14.283,15.247s-14.134-6.827-14.134-15.247H785.49z"/>
<linearGradient id="SVGID_14_" gradientUnits="userSpaceOnUse" x1="199.6184" y1="589.7809" x2="257.3823" y2="532.0169">
	<stop  offset="0" style="stop-color:#AEABAC"/>
	<stop  offset="0.275" style="stop-color:#B6B3B3"/>
	<stop  offset="0.7088" style="stop-color:#CDC9C8"/>
	<stop  offset="1" style="stop-color:#E0DBD9"/>
</linearGradient>
<path fill="url(#SVGID_14_)" d="M247.337,532.456l0.878-7.603c0,0,0.39-2.254-0.927-2.785c-1.37-0.553-2.626,1.146-2.626,1.146
	l-3.783,4.797l-8.934,0.745l-4.938-4.487c0,0-1.218-1.293-2.522-0.585c-0.679,0.369-1.032,1.638-0.688,2.458
	c0.344,0.818,2.636,8.421,2.636,8.421s-0.443,0.828-0.648,2.407c-0.395,3.037,0.187,4.067-0.196,6.54
	c-0.182,1.174-0.659,2.413-1.563,3.568c-4.638,5.928-19.093,8.49-23.279,25.714c-1.21,4.98-1.337,10.402,0.408,18.526l37.888,0.328
	c0,0,0.36-3.273,1.374-7.578c0.784-3.329,2.011-7.281,3.441-10.787c1.579-3.873,4.011-7.775,4.328-15.135
	c0.122-2.834-0.501-7.078-1.97-10.578c0,0,1.345-1.62,2.308-3.807c0.757-1.719,1.158-3.433,0.722-5.689
	C248.707,535.276,247.337,532.456,247.337,532.456z"/>
<rect x="583.031" y="627" fill="#FFFFFF" width="60" height="131.583"/>
<g>
	<polygon fill="none" stroke="#000000" stroke-width="1.9067" stroke-linejoin="round" stroke-miterlimit="1" points="
		611.985,638.557 593.044,691.578 611.985,744.598 632.647,691.029 	"/>
	<polygon fill="none" stroke="#000000" stroke-width="1.3153" stroke-linejoin="round" stroke-miterlimit="1" points="
		612.383,653.83 599.035,691.047 612.383,728.883 627.107,691.029 	"/>
</g>
<polyline fill="none" stroke="#000000" stroke-width="1.5" stroke-linecap="round" stroke-linejoin="round" stroke-miterlimit="1" points="
	676.907,450.504 676.907,419.838 722.656,419.838 722.656,450.004 "/>
<linearGradient id="SVGID_15_" gradientUnits="userSpaceOnUse" x1="657.4067" y1="470.2318" x2="742.4839" y2="470.2318">
	<stop  offset="0" style="stop-color:#AEABAC"/>
	<stop  offset="0.275" style="stop-color:#B6B3B3"/>
	<stop  offset="0.7088" style="stop-color:#CDC9C8"/>
	<stop  offset="1" style="stop-color:#E0DBD9"/>
</linearGradient>
<path fill="url(#SVGID_15_)" d="M742.387,487.818L730.6,452.649c-0.467-1.85-2.516-3.351-4.57-3.351h-17.911h-16.347h-18.115
	c-2.056,0-4.104,1.501-4.571,3.351l-11.582,35.169c-0.47,1.85,0.815,3.347,2.87,3.347h31.615h5.663h41.865
	C741.571,491.165,742.857,489.668,742.387,487.818z"/>
<rect x="666.406" y="481" width="67" height="3"/>
<rect x="668.406" y="475" width="63" height="3"/>
<rect x="670.406" y="469" width="59" height="3"/>
<rect x="672.406" y="463.124" width="55" height="3"/>
<path d="M718.433,452.635c0,3.469-8.4,6.277-18.763,6.277c-10.364,0-18.765-2.809-18.765-6.277"/>
<circle fill="#FFFFFF" stroke="#000000" stroke-width="1.5" stroke-linecap="round" stroke-linejoin="round" stroke-miterlimit="1" cx="559.199" cy="453.483" r="2.828"/>
<linearGradient id="SVGID_16_" gradientUnits="userSpaceOnUse" x1="128.7104" y1="659.1201" x2="781.2573" y2="6.5731">
	<stop  offset="0" style="stop-color:#705F30"/>
	<stop  offset="1" style="stop-color:#A39060"/>
</linearGradient>
<path fill="url(#SVGID_16_)" d="M265.603,235.929h0.062c0-0.696-0.025-1.389-0.062-2.079v-57.503h-9v34.131
	c-5.159-6.747-12.44-12.87-21.647-18.151c-18.967-10.882-44.1-16.96-70.766-16.96c-26.627,0-51.729,6.019-70.68,17.014
	c-9.178,5.325-16.435,11.443-21.573,18.179V72.347h-9v163.142c-0.001,0.147-0.009,0.293-0.009,0.44h0.009v357.418h7.668h1.332
	h42.334h5h90.105h5h42.228h9h0.002v-9h-0.002V235.929z M256.603,234.11v32.737h-42.228V192.56
	C238.966,201.312,255.536,216.407,256.603,234.11z M71.937,271.847h42.334v74.749H71.937V271.847z M166.856,351.596h42.52v75h-42.52
	V351.596z M161.856,426.596h-42.585v-75h42.585V426.596z M166.856,346.596v-74.749h42.52v74.749H166.856z M166.856,266.847v-82.368
	c15.405,0.237,29.876,2.53,42.52,6.425v75.943H166.856z M161.856,266.847h-42.585v-75.904c12.925-4.049,27.44-6.249,42.585-6.455
	V266.847z M161.856,271.847v74.749h-42.585v-74.749H161.856z M71.937,351.596h42.334v75H71.937V351.596z M71.937,431.596h42.334
	v74.751H71.937V431.596z M119.271,431.596h42.585v74.751h-42.585V431.596z M166.856,431.596h42.52v74.751h-42.52V431.596z
	 M214.376,431.596h42.228v74.751h-42.228V431.596z M214.376,426.596v-75h42.228v75H214.376z M214.376,346.596v-74.749h42.228v74.749
	H214.376z M98.028,200.121c4.972-2.885,10.428-5.375,16.243-7.485v74.21H71.937v-31.116
	C72.031,222.798,81.283,209.835,98.028,200.121z M71.937,584.347v-73h42.334v73H71.937z M119.271,511.347h42.585v73h-42.585V511.347
	z M166.856,584.347v-73h42.52v73H166.856z M214.376,584.347v-73h42.228v73H214.376z M847.04,235.929c0-0.147-0.007-0.293-0.009-0.44
	V72.347h-9v138.213c-5.139-6.736-12.395-12.854-21.573-18.179c-18.951-10.995-44.053-17.014-70.68-17.014
	c-26.666,0-51.799,6.078-70.766,16.96c-9.208,5.281-16.488,11.404-21.647,18.151v-34.131h-9v57.503
	c-0.036,0.69-0.062,1.383-0.062,2.079h0.062v348.418h-0.002v9h0.002h9h42.227h5h90.104h5h42.334h1.332h7.668V235.929H847.04z
	 M838.031,235.731v31.116h-42.334v-74.21c5.815,2.109,11.271,4.6,16.243,7.485C828.685,209.835,837.937,222.798,838.031,235.731z
	 M653.365,271.847h42.227v74.749h-42.227V271.847z M748.112,351.596h42.585v75h-42.585V351.596z M743.112,426.596h-42.52v-75h42.52
	V426.596z M748.112,346.596v-74.749h42.585v74.749H748.112z M748.112,266.847v-82.359c15.145,0.206,29.66,2.406,42.585,6.455v75.904
	H748.112z M743.112,266.847h-42.52v-75.943c12.643-3.895,27.114-6.188,42.52-6.425V266.847z M743.112,271.847v74.749h-42.52v-74.749
	H743.112z M653.365,351.596h42.227v75h-42.227V351.596z M653.365,431.596h42.227v74.751h-42.227V431.596z M700.592,431.596h42.52
	v74.751h-42.52V431.596z M748.112,431.596h42.585v74.751h-42.585V431.596z M795.697,431.596h42.334v74.751h-42.334V431.596z
	 M795.697,426.596v-75h42.334v75H795.697z M795.697,346.596v-74.749h42.334v74.749H795.697z M695.592,192.56v74.286h-42.227V234.11
	C654.432,216.407,671.001,201.312,695.592,192.56z M653.365,584.347v-73h42.227v73H653.365z M700.592,511.347h42.52v73h-42.52
	V511.347z M748.112,584.347v-73h42.585v73H748.112z M795.697,584.347v-73h42.334v73H795.697z M221.829,93.744l-25.912,58.822h7.542
	L210.078,137h22.907l6.435,15.474l0.038,0.092h7.611L221.964,94.06L221.829,93.744z M221.674,109.969l8.587,20.583h-17.38
	L221.674,109.969z M261.339,117.604h6.11v6.157h-6.11v28.805h-6.594v-28.805h-3.564v-6.157h3.564v-12.293h6.594V117.604z
	 M289.04,116.658c-8.448,0-16.972,5.833-16.972,18.864c0,10.424,7.199,17.99,17.117,17.99c7.011,0,12.738-3.482,16.126-9.806
	l0.178-0.331l-5.614-3.221l-0.191,0.345c-2.553,4.614-5.845,6.856-10.062,6.856c-6.032,0-10.553-4.468-10.805-10.646h26.809
	l0.021-0.365c0.333-5.838-1.432-11.26-4.844-14.871C297.829,118.324,293.761,116.658,289.04,116.658z M279.171,130.989
	c0.901-4.522,5.322-8.172,9.941-8.172c4.522,0,8.607,3.5,9.572,8.172H279.171z M316.219,91.782h6.593v60.785h-6.593V91.782z
	 M334.005,117.604h6.594v54.165h-6.594V117.604z M341.835,105.116c0,2.501-2.034,4.534-4.533,4.534s-4.533-2.033-4.533-4.534
	c0-2.457,2.076-4.534,4.533-4.534S341.835,102.659,341.835,105.116z M367.286,116.658c-8.448,0-16.972,5.833-16.972,18.864
	c0,10.424,7.199,17.99,17.117,17.99c7.011,0,12.738-3.482,16.126-9.806l0.178-0.331l-5.614-3.221l-0.191,0.345
	c-2.553,4.614-5.845,6.856-10.062,6.856c-6.032,0-10.553-4.468-10.805-10.646h26.809l0.022-0.365
	c0.333-5.838-1.432-11.26-4.844-14.871C376.076,118.324,372.008,116.658,367.286,116.658z M357.418,130.989
	c0.901-4.522,5.322-8.172,9.941-8.172c4.523,0,8.607,3.5,9.572,8.172H357.418z M370.775,112.428l-11.649-11.726l6.907-3.123
	l9.098,12.537l-4.274,2.394L370.775,112.428z M432.548,99.925c-3.979-2.751-8.809-2.979-13.821-2.979h-9.407v55.62h6.885v-24.004
	h4.05c4.069,0,9.256-0.423,13.268-3.726c3.367-2.794,5.378-7.311,5.378-12.083C438.9,107.489,436.526,102.694,432.548,99.925z
	 M416.205,103.394h1.868c7.055,0,13.941,0.712,13.941,9.215c0,6.396-3.965,9.505-12.123,9.505h-3.687V103.394z M447.394,96.947
	h29.216v6.448h-22.331v15.519h21.677v6.448h-21.677v20.757h22.331v6.448h-29.216V96.947z M528.767,96.947h6.886v58.672l-0.259-0.271
	l-42.512-44.464v41.683h-6.886V94.04l0.259,0.271l42.512,44.536V96.947z M590.827,96.947h6.886v58.672l-0.259-0.271l-42.512-44.464
	v41.683h-6.886V94.04l0.259,0.271l42.512,44.536V96.947z M630.366,93.743l-25.673,58.28l-0.238,0.544h7.542l6.62-15.566h22.907
	l6.373,15.328l0.101,0.238h7.61l-24.892-58.004L630.366,93.743z M630.211,109.969l8.589,20.583h-17.38L630.211,109.969z
	 M712.012,96.947v58.672l-0.259-0.271l-42.512-44.464v41.683h-6.886V94.04l0.259,0.271l42.512,44.536v-41.9H712.012z"/>
<rect x="4.051" y="170" width="900.688" height="9"/>
<rect x="5.406" y="64" width="899.333" height="9"/>
<polygon points="586.176,608 640.952,608 635.719,618.509 589.899,618.449 "/>
<rect x="583.031" y="618" width="60" height="9"/>
<g>
	<path fill="#F1EEED" d="M602.406,600c-0.553,0-1-0.449-1-1V424c0-0.553,0.447-1,1-1c0.553,0,1,0.447,1,1v175
		C603.406,599.551,602.958,600,602.406,600z"/>
	<path fill="#F1EEED" d="M613.406,600c-0.553,0-1-0.449-1-1V424c0-0.553,0.447-1,1-1c0.553,0,1,0.447,1,1v175
		C614.406,599.551,613.958,600,613.406,600z"/>
	<path fill="#F1EEED" d="M624.406,600c-0.553,0-1-0.449-1-1V424c0-0.553,0.447-1,1-1c0.553,0,1,0.447,1,1v175
		C625.406,599.551,624.958,600,624.406,600z"/>
	<path fill="#F1EEED" d="M864.018,600c-0.553,0-1-0.449-1-1V424c0-0.553,0.447-1,1-1c0.553,0,1,0.447,1,1v175
		C865.018,599.551,864.571,600,864.018,600z"/>
	<path fill="#F1EEED" d="M875.018,600c-0.553,0-1-0.449-1-1V424c0-0.553,0.447-1,1-1c0.553,0,1,0.447,1,1v175
		C876.018,599.551,875.571,600,875.018,600z"/>
	<path fill="#F1EEED" d="M886.018,600c-0.553,0-1-0.449-1-1V424c0-0.553,0.447-1,1-1c0.553,0,1,0.447,1,1v175
		C887.018,599.551,886.571,600,886.018,600z"/>
</g>
<polygon points="4.872,608.624 59.647,608.624 54.415,619.133 8.595,619.075 "/>
<rect x="2.102" y="618.624" width="60" height="9"/>
<path d="M882.572,356.415c0,3.596-2.901,6.513-6.5,6.513l0,0c-3.598,0-6.5-2.917-6.5-6.513V207.552c0-3.597,2.902-6.512,6.5-6.512
	l0,0c3.599,0,6.5,2.915,6.5,6.512V356.415z"/>
<g>
	<text transform="matrix(1 0 0 1 417.1597 324.6094)"><tspan x="0" y="0" font-family="'Helvetica'" font-size="25.2834">Dren</tspan><tspan x="-34.097" y="31" font-family="'Helvetica'" font-size="25.2834">babblar rakt</tspan><tspan x="-19.091" y="62" font-family="'Helvetica'" font-size="25.2834"> ut luften </tspan><tspan x="-33.603" y="93" font-family="'Helvetica'" font-size="25.2834">medan den </tspan><tspan x="-35.498" y="124" font-family="'Helvetica'" font-size="25.2834">kloke vger </tspan><tspan x="-19.529" y="155" font-family="'Helvetica'" font-size="25.2834">varje ord </tspan><tspan x="-32.455" y="186" font-family="'Helvetica'" font-size="25.2834">p guldvg.</tspan></text>
</g>
</svg>
