<?xml version="1.0" encoding="utf-8"?>
<!-- Generator: Adobe Illustrator 17.0.0, SVG Export Plug-In . SVG Version: 6.00 Build 0)  -->
<!DOCTYPE svg PUBLIC "-//W3C//DTD SVG 1.1//EN" "http://www.w3.org/Graphics/SVG/1.1/DTD/svg11.dtd">
<svg version="1.1" id="Layer_1" xmlns="http://www.w3.org/2000/svg" xmlns:xlink="http://www.w3.org/1999/xlink" x="0px" y="0px"
	 width="272.945px" height="42.302px" viewBox="0 0 272.945 42.302" enable-background="new 0 0 272.945 42.302"
	 xml:space="preserve">
<g>
	<path fill="#232322" d="M13.705,1.037L0,32.146h3.988l3.5-8.233h12.115l3.404,8.184l0.02,0.049h4.025L13.775,1.204L13.705,1.037z
		 M13.621,9.617l4.543,10.886H8.971L13.621,9.617z"/>
	<polygon fill="#232322" points="34.6,7.155 31.111,7.155 31.111,13.656 29.227,13.656 29.227,16.912 31.111,16.912 31.111,32.146 
		34.6,32.146 34.6,16.912 37.832,16.912 37.832,13.656 34.6,13.656 	"/>
	<path fill="#232322" d="M49.248,13.155c-4.467,0-8.975,3.085-8.975,9.977c0,5.513,3.807,9.514,9.053,9.514
		c3.707,0,6.736-1.841,8.529-5.186l0.092-0.175l-2.969-1.703l-0.1,0.182c-1.35,2.44-3.092,3.626-5.322,3.626
		c-3.189,0-5.582-2.362-5.715-5.63H58.02l0.014-0.192c0.176-3.087-0.758-5.955-2.562-7.865
		C53.897,14.036,51.746,13.155,49.248,13.155z M44.029,20.734c0.477-2.391,2.816-4.321,5.256-4.321c2.395,0,4.555,1.851,5.064,4.321
		H44.029z"/>
	<rect x="63.623" y="0" fill="#232322" width="3.486" height="32.146"/>
	<g>
		<rect x="73.031" y="13.656" fill="#232322" width="3.486" height="28.646"/>
		<path fill="#232322" d="M74.775,4.654c-1.303,0-2.4,1.098-2.4,2.398c0,1.322,1.078,2.397,2.4,2.397
			c1.32,0,2.395-1.075,2.395-2.397C77.17,5.751,76.074,4.654,74.775,4.654z"/>
	</g>
	<path fill="#232322" d="M90.631,13.155c-4.467,0-8.975,3.085-8.975,9.977c0,5.513,3.807,9.514,9.053,9.514
		c3.707,0,6.736-1.841,8.527-5.186l0.094-0.175l-2.969-1.703l-0.101,0.182c-1.352,2.44-3.09,3.626-5.322,3.626
		c-3.188,0-5.582-2.362-5.713-5.63h14.18l0.012-0.192c0.174-3.087-0.76-5.955-2.563-7.865
		C95.279,14.036,93.127,13.155,90.631,13.155z M85.412,20.734c0.477-2.391,2.814-4.321,5.258-4.321c2.391,0,4.553,1.851,5.062,4.321
		H85.412z"/>
	<polygon fill="#232322" points="92.52,10.961 94.779,9.695 89.969,3.065 86.315,4.717 92.477,10.918 	"/>
	<path fill="#232322" d="M125.147,4.306c-2.105-1.454-4.658-1.575-7.311-1.575h-4.973v29.416h3.639V19.451h2.141
		c2.152,0,4.896-0.224,7.018-1.97c1.781-1.478,2.844-3.867,2.844-6.39C128.504,8.306,127.248,5.769,125.147,4.306z M116.502,6.14
		h0.988c3.73,0,7.373,0.377,7.373,4.874c0,3.382-2.098,5.026-6.41,5.026h-1.951V6.14z"/>
	<polygon fill="#232322" points="132.998,32.146 148.449,32.146 148.449,28.736 136.639,28.736 136.639,17.758 148.104,17.758 
		148.104,14.348 136.639,14.348 136.639,6.14 148.449,6.14 148.449,2.73 132.998,2.73 	"/>
	<polygon fill="#232322" points="176.033,24.89 153.551,1.337 153.412,1.193 153.412,32.146 157.055,32.146 157.055,10.102 
		179.537,33.617 179.676,33.76 179.676,2.73 176.033,2.73 	"/>
	<polygon fill="#232322" points="208.854,24.89 186.371,1.337 186.234,1.193 186.234,32.146 189.875,32.146 189.875,10.102 
		212.359,33.617 212.494,33.76 212.494,2.73 208.854,2.73 	"/>
	<path fill="#232322" d="M229.764,1.036l-13.576,30.822l-0.127,0.288h3.99l3.5-8.233h12.115l3.371,8.106l0.053,0.127h4.025
		L229.951,1.47L229.764,1.036z M229.684,9.617l4.541,10.886h-9.189L229.684,9.617z"/>
	<polygon fill="#232322" points="269.303,2.73 269.303,24.89 246.82,1.337 246.684,1.193 246.684,32.146 250.324,32.146 
		250.324,10.102 272.809,33.617 272.945,33.76 272.945,2.73 	"/>
</g>
</svg>
